<svg width="145" height="133" viewBox="0 0 145 133" fill="none" xmlns="http://www.w3.org/2000/svg">
<path d="M39.5716 54.6778L50.4638 36.9444H84.5884L91.8918 25.1222L91.3882 22.1667C91.3882 19.8151 92.3832 17.5598 94.1543 15.897C95.9254 14.2342 98.3275 13.3 100.832 13.3C103.337 13.3 105.739 14.2342 107.51 15.897C109.281 17.5598 110.276 19.8151 110.276 22.1667C110.276 26.3635 107.128 29.9102 102.91 30.7969L96.8657 40.6684L105.428 54.6778L110.843 45.8111L110.276 42.8555C110.276 40.504 111.271 38.2487 113.042 36.5859C114.814 34.923 117.216 33.9889 119.72 33.9889C122.225 33.9889 124.627 34.923 126.398 36.5859C128.169 38.2487 129.164 40.504 129.164 42.8555C129.164 47.0524 126.016 50.54 121.924 51.4858L112.732 66.5L123.624 84.2333C128.472 84.6471 132.313 88.4302 132.313 93.1C132.313 95.4516 131.318 97.7068 129.546 99.3697C127.775 101.032 125.373 101.967 122.868 101.967C120.364 101.967 117.962 101.032 116.19 99.3697C114.419 97.7068 113.424 95.4516 113.424 93.1V91.5631L105.428 78.3222L96.8657 92.3315L102.91 102.203C104.998 102.645 106.864 103.74 108.202 105.308C109.54 106.876 110.272 108.824 110.276 110.833C110.276 113.185 109.281 115.44 107.51 117.103C105.739 118.766 103.337 119.7 100.832 119.7C98.3275 119.7 95.9254 118.766 94.1543 117.103C92.3832 115.44 91.3882 113.185 91.3882 110.833L91.8918 107.878L84.5884 96.0555H60.4116L53.1082 107.878L53.6118 110.833C53.6118 113.185 52.6168 115.44 50.8457 117.103C49.0746 118.766 46.6725 119.7 44.1678 119.7C41.663 119.7 39.2609 118.766 37.4898 117.103C35.7187 115.44 34.7237 113.185 34.7237 110.833C34.7237 106.636 37.8717 103.09 42.0901 102.203L48.1343 92.3315L21.3761 48.7667C16.5281 48.3529 12.6875 44.5698 12.6875 39.9C12.6875 37.5484 13.6825 35.2931 15.4536 33.6303C17.2247 31.9675 19.6269 31.0333 22.1316 31.0333C24.6363 31.0333 27.0384 31.9675 28.8096 33.6303C30.5807 35.2931 31.5757 37.5484 31.5757 39.9V41.4369L39.5716 54.6778ZM57.7043 48.7667L46.8121 66.5L57.7043 84.2333H87.2957L98.1879 66.5L87.2957 48.7667H57.7043Z" fill="#68B0AB" fill-opacity="0.6"/>
<path d="M67.7187 72.944C67.4033 72.9445 67.0988 72.8228 66.8631 72.6021L60.3438 66.4993L67.2252 60.0574C67.4817 59.8263 67.8141 59.7105 68.1508 59.7348C68.4876 59.7591 68.8018 59.9216 69.026 60.1873C69.2502 60.4531 69.3664 60.8009 69.3496 61.1559C69.3328 61.5109 69.1844 61.8448 68.9362 62.0858L64.2219 66.4993L68.5742 70.5724C68.7697 70.7551 68.9078 70.9961 68.9702 71.2634C69.0326 71.5307 69.0163 71.8117 68.9235 72.069C68.8307 72.3264 68.6657 72.5479 68.4505 72.7042C68.2353 72.8604 67.9801 72.9441 67.7187 72.944V72.944ZM79.2436 72.9413L86.125 66.4993L79.6056 60.3966C79.3502 60.1577 79.0151 60.0354 78.674 60.0566C78.333 60.0779 78.0139 60.2409 77.787 60.5099C77.5601 60.7789 77.444 61.1317 77.4642 61.4909C77.4843 61.85 77.6392 62.186 77.8946 62.425L82.2469 66.4993L77.5325 70.9116C77.2769 71.1505 77.1219 71.4866 77.1016 71.8458C77.0814 72.2051 77.1974 72.5582 77.4243 72.8273C77.6512 73.0965 77.9703 73.2597 78.3115 73.2811C78.6527 73.3025 78.988 73.1802 79.2436 72.9413V72.9413ZM73.2163 74.8638L75.7932 58.5826C75.8261 58.4046 75.8249 58.2216 75.7895 58.0441C75.7541 57.8667 75.6854 57.6986 75.5872 57.5496C75.4891 57.4006 75.3636 57.2739 75.2182 57.1769C75.0728 57.0798 74.9104 57.0145 74.7406 56.9846C74.5708 56.9548 74.397 56.9611 74.2296 57.0032C74.0621 57.0452 73.9044 57.1222 73.7656 57.2296C73.6269 57.3369 73.51 57.4725 73.4219 57.6282C73.3337 57.7839 73.2761 57.9566 73.2524 58.1362L70.6756 74.4175C70.6426 74.5954 70.6439 74.7785 70.6792 74.9559C70.7146 75.1333 70.7834 75.3015 70.8815 75.4504C70.9796 75.5994 71.1051 75.7261 71.2505 75.8232C71.3959 75.9202 71.5583 75.9856 71.7282 76.0154C71.898 76.0453 72.0717 76.039 72.2392 75.9969C72.4066 75.9548 72.5644 75.8778 72.7031 75.7705C72.8418 75.6631 72.9587 75.5276 73.0469 75.3719C73.135 75.2161 73.1927 75.0434 73.2163 74.8638V74.8638Z" fill="#68B0AB" fill-opacity="0.6"/>
</svg>
